<?xml version="1.0" encoding="utf-8"?>
<!-- Generator: Adobe Illustrator 15.1.0, SVG Export Plug-In . SVG Version: 6.00 Build 0)  -->
<!DOCTYPE svg PUBLIC "-//W3C//DTD SVG 1.1//EN" "http://www.w3.org/Graphics/SVG/1.1/DTD/svg11.dtd">
<svg version="1.1" id="Фигура_2_1_" xmlns="http://www.w3.org/2000/svg" xmlns:xlink="http://www.w3.org/1999/xlink" x="0px"
	 y="0px" width="387px" height="335px" viewBox="0 0 387 335" enable-background="new 0 0 387 335" xml:space="preserve">
<g id="Фигура_2">
	<g>
		<path fill-rule="evenodd" clip-rule="evenodd" fill="#FFFFFF" d="M387,188.996c0-23.878-9.882-45.369-25.648-60.387
			c4.178-7.703,6.571-16.577,6.571-26.031c0-29.49-23.185-53.396-51.782-53.396c-4.235,0-8.344,0.536-12.282,1.524
			c0.003-0.274,0.018-0.546,0.018-0.822C303.876,22.334,282.217,0,255.502,0c-13.26,0-25.269,5.505-34.006,14.414
			C211.174,5.427,197.846,0,183.28,0c-23.801,0-44.314,14.473-53.746,35.343c-1.371-0.139-2.762-0.213-4.168-0.213
			c-20.722,0-37.946,15.391-41.542,35.688c-2.913-0.356-5.872-0.559-8.877-0.559C33.555,70.26,0,104.861,0,147.543
			c0,37.402,25.765,68.594,59.989,75.743c0.657,35.887,29.055,64.775,64.014,64.775c16.042,0,30.694-6.097,41.931-16.146
			c10.388,17.681,29.221,29.495,50.73,29.495c17.571,0,33.351-7.891,44.204-20.413L343.394,335l-28.637-64.172
			C355.277,266.943,387,231.797,387,188.996z"/>
	</g>
</g>
</svg>
